<?xml version="1.0" standalone="no"?>

<!--
~-~ https://vnd1sm.space
~-~ Created by
~-~ vnd1sm
-->

<svg version="1.0" xmlns="http://www.w3.org/2000/svg"
 width="981.000000pt" height="981.000000pt" viewBox="0 0 981.000000 981.000000"
 preserveAspectRatio="xMidYMid meet">
<metadata>
</metadata>
<g transform="translate(0.000000,981.000000) scale(0.100000,-0.100000)"
fill="#000000" stroke="none">
<path d="M4700 9799 c-333 -35 -656 -162 -934 -367 -145 -107 -3279 -3240
-3383 -3382 -270 -369 -398 -779 -380 -1215 17 -388 143 -744 374 -1058 110
-150 3239 -3279 3389 -3389 323 -238 665 -358 1064 -375 431 -17 820 102 1195
365 60 42 486 462 1678 1652 879 877 1631 1636 1672 1685 313 383 467 898 414
1383 -30 280 -118 549 -249 769 -131 217 -115 201 -1799 1884 -1699 1700
-1682 1684 -1897 1807 -342 196 -755 283 -1144 241z m466 -2139 c256 -44 564
-173 859 -359 292 -185 2652 -1760 2701 -1803 214 -187 345 -467 374 -805 30
-336 -60 -724 -240 -1034 -92 -158 -181 -262 -493 -576 -171 -172 -314 -313
-319 -313 -4 0 -38 -25 -75 -55 -124 -99 -276 -166 -488 -215 -247 -57 -413
-128 -499 -215 -77 -78 -123 -176 -220 -461 -46 -137 -102 -289 -125 -338 -46
-100 -153 -266 -200 -310 -17 -17 -31 -35 -31 -41 0 -16 -409 -419 -496 -488
-223 -178 -516 -301 -807 -337 -136 -17 -384 -8 -510 19 -240 51 -451 146
-647 290 -108 79 -641 610 -696 693 -72 108 -139 261 -218 501 -41 124 -90
258 -109 298 -99 213 -221 292 -590 384 -197 49 -258 70 -362 123 -86 45 -103
60 -409 362 -175 173 -359 360 -408 415 -414 463 -569 1091 -392 1587 67 188
173 348 325 493 84 80 234 182 1389 949 712 473 1354 895 1425 939 264 160
504 257 750 301 124 22 369 20 511 -4z"/>
<path d="M2317 5405 c-302 -181 -513 -464 -602 -806 -33 -129 -45 -349 -25
-492 34 -249 153 -503 325 -694 260 -288 685 -453 1068 -414 320 33 583 156
803 377 188 189 317 438 359 694 19 122 19 323 0 436 -64 367 -283 688 -605
888 -41 25 -78 46 -83 46 -5 0 1 -13 12 -29 39 -54 91 -176 106 -246 96 -453
-244 -875 -705 -875 -453 0 -791 408 -709 856 14 75 53 175 95 242 19 28 30
52 26 52 -4 -1 -33 -16 -65 -35z"/>
<path d="M6192 5395 c-320 -194 -545 -523 -608 -889 -24 -138 -15 -399 19
-526 70 -268 207 -495 401 -662 250 -217 529 -321 856 -321 271 0 494 67 720
217 257 172 453 449 531 751 41 157 50 364 25 525 -60 379 -286 711 -622 913
-34 20 -65 37 -68 37 -4 0 2 -13 14 -30 38 -53 87 -173 105 -254 22 -98 16
-261 -13 -351 -83 -261 -297 -454 -559 -505 -99 -20 -262 -9 -358 24 -220 75
-391 246 -462 463 -34 102 -42 276 -20 374 23 94 52 166 91 227 19 28 32 52
28 52 -4 0 -40 -21 -80 -45z"/>
<path d="M4775 3084 c-415 -458 -598 -753 -556 -895 17 -57 71 -112 143 -145
57 -26 74 -29 168 -29 162 0 271 49 311 140 18 41 19 68 17 530 l-3 487 -80
-88z"/>
<path d="M4973 2668 l2 -506 31 -39 c18 -22 59 -53 99 -73 66 -34 72 -35 179
-35 138 0 200 20 267 85 81 78 86 157 19 299 -77 161 -270 415 -549 721 l-50
55 2 -507z"/>
</g>
</svg>
